<?xml version="1.0" encoding="utf-8" ?>
<svg baseProfile="full" height="679px" version="1.1" width="976px" xmlns="http://www.w3.org/2000/svg" xmlns:ev="http://www.w3.org/2001/xml-events" xmlns:xlink="http://www.w3.org/1999/xlink"><defs /><rect fill="#ffffff" height="679" stroke="none" width="976" x="0" y="0" /><rect fill="#ffffff" height="648" stroke="#000000" stroke-width="4px" width="972" x="2.0" y="2.0" /><line stroke="#000000" stroke-width="4px" x1="4" x2="972" y1="326.0" y2="326.0" /><line stroke="#000000" stroke-width="4px" x1="326.0" x2="326.0" y1="4" y2="648" /><line stroke="#000000" stroke-width="4px" x1="650.0" x2="650.0" y1="4" y2="648" /><rect fill="#0067b2" height="644" stroke="none" width="40" x="4" y="4" /><text fill="#ffffff" fill-opacity="1" font-family="sans-serif" font-size="40px" font-stretch="normal" font-style="normal" font-variant="normal" font-weight="normal" text-anchor="middle" x="24.0" y="341.0">C</text><path d="M 972,104 L 947,104 A 60 60, 0, 1, 0, 947,224 L 972,224 Z" fill="#504416" stroke="none" /><text fill="#ffffff" fill-opacity="1" font-family="sans-serif" font-size="64px" font-stretch="normal" font-style="normal" font-variant="normal" font-weight="normal" text-anchor="middle" x="942" y="184.0">1</text><circle cx="164.0" cy="388" fill="#504416" r="60" stroke="none" /><text fill="#ffffff" fill-opacity="1" font-family="sans-serif" font-size="64px" font-stretch="normal" font-style="normal" font-variant="normal" font-weight="normal" text-anchor="middle" x="164.0" y="408">2</text><circle cx="812.0" cy="588" fill="#504416" r="60" stroke="none" /><text fill="#ffffff" fill-opacity="1" font-family="sans-serif" font-size="64px" font-stretch="normal" font-style="normal" font-variant="normal" font-weight="normal" text-anchor="middle" x="812.0" y="608">3</text><circle cx="264" cy="64" fill="#504416" r="60" stroke="none" /><text fill="#ffffff" fill-opacity="1" font-family="sans-serif" font-size="64px" font-stretch="normal" font-style="normal" font-variant="normal" font-weight="normal" text-anchor="middle" x="264" y="84">4</text><path d="M 224,648 L 224,623 A 60 60, 0, 1, 0, 104,623 L 104,648 Z" fill="#504416" stroke="none" /><text fill="#ffffff" fill-opacity="1" font-family="sans-serif" font-size="64px" font-stretch="normal" font-style="normal" font-variant="normal" font-weight="normal" text-anchor="middle" x="164.0" y="633">5</text><circle cx="588" cy="388" fill="#504416" r="60" stroke="none" /><text fill="#ffffff" fill-opacity="1" font-family="sans-serif" font-size="64px" font-stretch="normal" font-style="normal" font-variant="normal" font-weight="normal" text-anchor="middle" text-decoration="underline" x="588" y="408">6</text><polygon fill="#0067b2" points="772.0,4 812.0,71 852.0,4" stroke="none" /><text fill="#ffffff" fill-opacity="1" font-family="sans-serif" font-size="40px" font-stretch="normal" font-style="normal" font-variant="normal" font-weight="normal" text-anchor="middle" x="812.0" y="41">S</text><polygon fill="#0067b2" points="972,448.0 905,488.0 972,528.0" stroke="none" /><text fill="#ffffff" fill-opacity="1" font-family="sans-serif" font-size="40px" font-stretch="normal" font-style="normal" font-variant="normal" font-weight="normal" text-anchor="middle" x="954" y="503.0">S</text><text fill="#000000" fill-opacity="1" font-family="sans-serif" font-size="26px" font-stretch="normal" font-style="normal" font-variant="normal" font-weight="normal" text-anchor="start" x="0" y="678">v1</text><text fill="#000000" fill-opacity="1" font-family="sans-serif" font-size="26px" font-stretch="normal" font-style="normal" font-variant="normal" font-weight="normal" text-anchor="end" x="968" y="678">#36</text></svg>