<?xml version="1.0" encoding="utf-8" ?>
<svg baseProfile="full" height="825px" version="1.1" width="1125px" xmlns="http://www.w3.org/2000/svg" xmlns:ev="http://www.w3.org/2001/xml-events" xmlns:xlink="http://www.w3.org/1999/xlink"><defs /><rect fill="#ffffff" height="825" stroke="none" width="1125" x="0" y="0" /><rect fill="#ffffff" height="648" stroke="#000000" stroke-width="4px" width="972" x="76.0" y="75.0" /><line stroke="#000000" stroke-width="4px" x1="78" x2="1046" y1="399.0" y2="399.0" /><line stroke="#000000" stroke-width="4px" x1="400.0" x2="400.0" y1="77" y2="721" /><line stroke="#000000" stroke-width="4px" x1="724.0" x2="724.0" y1="77" y2="721" /><rect fill="#0067b2" height="644" stroke="none" width="40" x="78" y="77" /><text fill="#ffffff" fill-opacity="1" font-family="sans-serif" font-size="40px" font-stretch="normal" font-style="normal" font-variant="normal" font-weight="normal" text-anchor="middle" x="98.0" y="414.0">C</text><path d="M 178,77 L 178,102 A 60 60, 0, 1, 0, 298,102 L 298,77 Z" fill="#504416" stroke="none" /><text fill="#ffffff" fill-opacity="1" font-family="sans-serif" font-size="64px" font-stretch="normal" font-style="normal" font-variant="normal" font-weight="normal" text-anchor="middle" x="238.0" y="135">1</text><circle cx="786" cy="561.0" fill="#504416" r="60" stroke="none" /><text fill="#ffffff" fill-opacity="1" font-family="sans-serif" font-size="64px" font-stretch="normal" font-style="normal" font-variant="normal" font-weight="normal" text-anchor="middle" x="786" y="581.0">2</text><circle cx="986" cy="661" fill="#504416" r="60" stroke="none" /><text fill="#ffffff" fill-opacity="1" font-family="sans-serif" font-size="64px" font-stretch="normal" font-style="normal" font-variant="normal" font-weight="normal" text-anchor="middle" x="986" y="681">3</text><circle cx="238.0" cy="337" fill="#504416" r="60" stroke="none" /><text fill="#ffffff" fill-opacity="1" font-family="sans-serif" font-size="64px" font-stretch="normal" font-style="normal" font-variant="normal" font-weight="normal" text-anchor="middle" x="238.0" y="357">4</text><path d="M 298,721 L 298,696 A 60 60, 0, 1, 0, 178,696 L 178,721 Z" fill="#504416" stroke="none" /><text fill="#ffffff" fill-opacity="1" font-family="sans-serif" font-size="64px" font-stretch="normal" font-style="normal" font-variant="normal" font-weight="normal" text-anchor="middle" x="238.0" y="706">5</text><circle cx="562.0" cy="337" fill="#504416" r="60" stroke="none" /><text fill="#ffffff" fill-opacity="1" font-family="sans-serif" font-size="64px" font-stretch="normal" font-style="normal" font-variant="normal" font-weight="normal" text-anchor="middle" text-decoration="underline" x="562.0" y="357">6</text><polygon fill="#0067b2" points="846.0,77 886.0,144 926.0,77" stroke="none" /><text fill="#ffffff" fill-opacity="1" font-family="sans-serif" font-size="40px" font-stretch="normal" font-style="normal" font-variant="normal" font-weight="normal" text-anchor="middle" x="886.0" y="114">S</text><polygon fill="#0067b2" points="846.0,721 886.0,654 926.0,721" stroke="none" /><text fill="#ffffff" fill-opacity="1" font-family="sans-serif" font-size="40px" font-stretch="normal" font-style="normal" font-variant="normal" font-weight="normal" text-anchor="middle" x="886.0" y="712">S</text><text fill="#000000" fill-opacity="1" font-family="sans-serif" font-size="26px" font-stretch="normal" font-style="normal" font-variant="normal" font-weight="normal" text-anchor="start" x="74" y="751">v1</text><text fill="#000000" fill-opacity="1" font-family="sans-serif" font-size="26px" font-stretch="normal" font-style="normal" font-variant="normal" font-weight="normal" text-anchor="end" x="1042" y="751">#33</text></svg>