<?xml version="1.0" encoding="utf-8" ?>
<svg baseProfile="full" height="825px" version="1.1" width="1125px" xmlns="http://www.w3.org/2000/svg" xmlns:ev="http://www.w3.org/2001/xml-events" xmlns:xlink="http://www.w3.org/1999/xlink"><defs /><rect fill="#ffffff" height="825" stroke="none" width="1125" x="0" y="0" /><rect fill="#ffffff" height="648" stroke="#000000" stroke-width="4px" width="972" x="76.0" y="75.0" /><line stroke="#000000" stroke-width="4px" x1="78" x2="1046" y1="399.0" y2="399.0" /><line stroke="#000000" stroke-width="4px" x1="400.0" x2="400.0" y1="77" y2="721" /><line stroke="#000000" stroke-width="4px" x1="724.0" x2="724.0" y1="77" y2="721" /><rect fill="#0067b2" height="644" stroke="none" width="40" x="1006" y="77" /><text fill="#ffffff" fill-opacity="1" font-family="sans-serif" font-size="40px" font-stretch="normal" font-style="normal" font-variant="normal" font-weight="normal" text-anchor="middle" x="1026.0" y="414.0">C</text><path d="M 78,297 L 103,297 A 60 60, 0, 1, 0, 103,177 L 78,177 Z" fill="#504416" stroke="none" /><text fill="#ffffff" fill-opacity="1" font-family="sans-serif" font-size="64px" font-stretch="normal" font-style="normal" font-variant="normal" font-weight="normal" text-anchor="middle" x="108" y="257.0">1</text><circle cx="786" cy="337" fill="#504416" r="60" stroke="none" /><text fill="#ffffff" fill-opacity="1" font-family="sans-serif" font-size="64px" font-stretch="normal" font-style="normal" font-variant="normal" font-weight="normal" text-anchor="middle" x="786" y="357">2</text><circle cx="462" cy="461" fill="#504416" r="60" stroke="none" /><text fill="#ffffff" fill-opacity="1" font-family="sans-serif" font-size="64px" font-stretch="normal" font-style="normal" font-variant="normal" font-weight="normal" text-anchor="middle" x="462" y="481">3</text><circle cx="138" cy="661" fill="#504416" r="60" stroke="none" /><text fill="#ffffff" fill-opacity="1" font-family="sans-serif" font-size="64px" font-stretch="normal" font-style="normal" font-variant="normal" font-weight="normal" text-anchor="middle" x="138" y="681">4</text><path d="M 946,721 L 946,696 A 60 60, 0, 1, 0, 826,696 L 826,721 Z" fill="#504416" stroke="none" /><text fill="#ffffff" fill-opacity="1" font-family="sans-serif" font-size="64px" font-stretch="normal" font-style="normal" font-variant="normal" font-weight="normal" text-anchor="middle" x="886.0" y="706">5</text><circle cx="238.0" cy="337" fill="#504416" r="60" stroke="none" /><text fill="#ffffff" fill-opacity="1" font-family="sans-serif" font-size="64px" font-stretch="normal" font-style="normal" font-variant="normal" font-weight="normal" text-anchor="middle" text-decoration="underline" x="238.0" y="357">6</text><polygon fill="#0067b2" points="198.0,77 238.0,144 278.0,77" stroke="none" /><text fill="#ffffff" fill-opacity="1" font-family="sans-serif" font-size="40px" font-stretch="normal" font-style="normal" font-variant="normal" font-weight="normal" text-anchor="middle" x="238.0" y="114">S</text><polygon fill="#0067b2" points="198.0,721 238.0,654 278.0,721" stroke="none" /><text fill="#ffffff" fill-opacity="1" font-family="sans-serif" font-size="40px" font-stretch="normal" font-style="normal" font-variant="normal" font-weight="normal" text-anchor="middle" x="238.0" y="712">S</text><text fill="#000000" fill-opacity="1" font-family="sans-serif" font-size="26px" font-stretch="normal" font-style="normal" font-variant="normal" font-weight="normal" text-anchor="start" x="74" y="751">v1</text><text fill="#000000" fill-opacity="1" font-family="sans-serif" font-size="26px" font-stretch="normal" font-style="normal" font-variant="normal" font-weight="normal" text-anchor="end" x="1042" y="751">#01</text></svg>