<?xml version="1.0" encoding="utf-8" ?>
<svg baseProfile="full" height="900px" version="1.1" width="1500px" xmlns="http://www.w3.org/2000/svg" xmlns:ev="http://www.w3.org/2001/xml-events" xmlns:xlink="http://www.w3.org/1999/xlink"><defs /><rect fill="#ffffff" height="900" stroke="none" width="1500" x="0" y="0" /><rect fill="#ffffff" height="458" stroke="#000000" stroke-width="4px" width="1374" x="65.0" y="221.0" /><line stroke="#000000" stroke-width="4px" x1="67" x2="1437" y1="450.0" y2="450.0" /><line stroke="#000000" stroke-width="4px" x1="294.0" x2="294.0" y1="223" y2="677" /><line stroke="#000000" stroke-width="4px" x1="523.0" x2="523.0" y1="223" y2="677" /><line stroke="#000000" stroke-width="4px" x1="752.0" x2="752.0" y1="223" y2="677" /><line stroke="#000000" stroke-width="4px" x1="981.0" x2="981.0" y1="223" y2="677" /><line stroke="#000000" stroke-width="4px" x1="1210.0" x2="1210.0" y1="223" y2="677" /><rect fill="#0067b2" height="454" stroke="none" width="40" x="1397" y="223" /><text fill="#ffffff" fill-opacity="1" font-family="sans-serif" font-size="40px" font-stretch="normal" font-style="normal" font-variant="normal" font-weight="normal" text-anchor="middle" x="1417.0" y="465.0">C</text><path d="M 67,379 L 85,379 A 44 44, 0, 1, 0, 85,291 L 67,291 Z" fill="#504416" stroke="none" /><text fill="#ffffff" fill-opacity="1" font-family="sans-serif" font-size="64px" font-stretch="normal" font-style="normal" font-variant="normal" font-weight="normal" text-anchor="middle" x="97" y="355.5">1</text><circle cx="408.5" cy="496" fill="#504416" r="44" stroke="none" /><text fill="#ffffff" fill-opacity="1" font-family="sans-serif" font-size="64px" font-stretch="normal" font-style="normal" font-variant="normal" font-weight="normal" text-anchor="middle" x="408.5" y="516">2</text><circle cx="1164" cy="564.5" fill="#504416" r="44" stroke="none" /><text fill="#ffffff" fill-opacity="1" font-family="sans-serif" font-size="64px" font-stretch="normal" font-style="normal" font-variant="normal" font-weight="normal" text-anchor="middle" x="1164" y="584.5">3</text><circle cx="111" cy="633" fill="#504416" r="44" stroke="none" /><text fill="#ffffff" fill-opacity="1" font-family="sans-serif" font-size="64px" font-stretch="normal" font-style="normal" font-variant="normal" font-weight="normal" text-anchor="middle" x="111" y="653">4</text><path d="M 1051,223 L 1051,241 A 44 44, 0, 1, 0, 1139,241 L 1139,223 Z" fill="#504416" stroke="none" /><text fill="#ffffff" fill-opacity="1" font-family="sans-serif" font-size="64px" font-stretch="normal" font-style="normal" font-variant="normal" font-weight="normal" text-anchor="middle" x="1095.5" y="276">5</text><circle cx="1256" cy="335.5" fill="#504416" r="44" stroke="none" /><text fill="#ffffff" fill-opacity="1" font-family="sans-serif" font-size="64px" font-stretch="normal" font-style="normal" font-variant="normal" font-weight="normal" text-anchor="middle" text-decoration="underline" x="1256" y="355.5">6</text><circle cx="706" cy="404" fill="#504416" r="44" stroke="none" /><text fill="#ffffff" fill-opacity="1" font-family="sans-serif" font-size="64px" font-stretch="normal" font-style="normal" font-variant="normal" font-weight="normal" text-anchor="middle" x="706" y="424">7</text><circle cx="477" cy="633" fill="#504416" r="44" stroke="none" /><text fill="#ffffff" fill-opacity="1" font-family="sans-serif" font-size="64px" font-stretch="normal" font-style="normal" font-variant="normal" font-weight="normal" text-anchor="middle" x="477" y="653">8</text><circle cx="408.5" cy="267" fill="#504416" r="44" stroke="none" /><text fill="#ffffff" fill-opacity="1" font-family="sans-serif" font-size="64px" font-stretch="normal" font-style="normal" font-variant="normal" font-weight="normal" text-anchor="middle" text-decoration="underline" x="408.5" y="287">9</text><circle cx="248" cy="564.5" fill="#504416" r="44" stroke="none" /><text fill="#ffffff" fill-opacity="1" font-family="sans-serif" font-size="64px" font-stretch="normal" font-style="normal" font-variant="normal" font-weight="normal" text-anchor="middle" x="248" y="584.5">10</text><polygon fill="#0067b2" points="139.5,223 179.5,290 219.5,223" stroke="none" /><text fill="#ffffff" fill-opacity="1" font-family="sans-serif" font-size="40px" font-stretch="normal" font-style="normal" font-variant="normal" font-weight="normal" text-anchor="middle" x="179.5" y="260">S</text><polygon fill="#0067b2" points="67,524.5 134,564.5 67,604.5" stroke="none" /><text fill="#ffffff" fill-opacity="1" font-family="sans-serif" font-size="40px" font-stretch="normal" font-style="normal" font-variant="normal" font-weight="normal" text-anchor="middle" x="85" y="579.5">S</text><text fill="#000000" fill-opacity="1" font-family="sans-serif" font-size="26px" font-stretch="normal" font-style="normal" font-variant="normal" font-weight="normal" text-anchor="start" x="63" y="707">gt v2</text><text fill="#000000" fill-opacity="1" font-family="sans-serif" font-size="26px" font-stretch="normal" font-style="normal" font-variant="normal" font-weight="normal" text-anchor="end" x="1433" y="707">#05</text></svg>